HIERARCHY
ROOT hip
{
  OFFSET -0.186977 96.2815 0.227329
  CHANNELS 6 Xposition Yposition Zposition Zrotation Xrotation Yrotation
  JOINT abdomen
  {
    OFFSET 0 7.2397 0
    CHANNELS 6 Xposition Yposition Zposition Zrotation Xrotation Yrotation
    JOINT chest
    {
      OFFSET 0 16.546 0
      CHANNELS 6 Xposition Yposition Zposition Zrotation Xrotation Yrotation
      JOINT neck
      {
        OFFSET 0 34.2149 0
        CHANNELS 6 Xposition Yposition Zposition Zrotation Xrotation Yrotation
        JOINT head
        {
          OFFSET 0 6.2923 0
          CHANNELS 6 Xposition Yposition Zposition Zrotation Xrotation Yrotation
          End Site
          {
            OFFSET 0 21.2161 0
          }
        }
      }
      JOINT lCollar
      {
        OFFSET 4.0639 26.6115 -1.1234
        CHANNELS 6 Xposition Yposition Zposition Zrotation Xrotation Yrotation
        JOINT lShldr
        {
          OFFSET 14.1772 0 0
          CHANNELS 6 Xposition Yposition Zposition Zrotation Xrotation Yrotation
          JOINT lForeArm
          {
            OFFSET 26.1234 0 0
            CHANNELS 6 Xposition Yposition Zposition Zrotation Xrotation Yrotation
            JOINT lHand
            {
              OFFSET 27.7188 0 0
              CHANNELS 6 Xposition Yposition Zposition Zrotation Xrotation Yrotation
              JOINT lThumb1
              {
                OFFSET 2.2979 -0.4685 1.8313
                CHANNELS 6 Xposition Yposition Zposition Zrotation Xrotation Yrotation
                JOINT lThumb2
                {
                  OFFSET 5.2953 0 0
                  CHANNELS 6 Xposition Yposition Zposition Zrotation Xrotation Yrotation
                  JOINT lThumb3
                  {
                    OFFSET 3.0181 0 0
                    CHANNELS 6 Xposition Yposition Zposition Zrotation Xrotation Yrotation
                    End Site
                    {
                      OFFSET 2.6294 0 0
                    }
                  }
                }
              }
              JOINT lIndex1
              {
                OFFSET 9.3793 0.2991 2.5924
                CHANNELS 6 Xposition Yposition Zposition Zrotation Xrotation Yrotation
                JOINT lIndex2
                {
                  OFFSET 4.3461 0 0
                  CHANNELS 6 Xposition Yposition Zposition Zrotation Xrotation Yrotation
                  JOINT lIndex3
                  {
                    OFFSET 2.1666 0 0
                    CHANNELS 6 Xposition Yposition Zposition Zrotation Xrotation Yrotation
                    End Site
                    {
                      OFFSET 2.2048 0 0
                    }
                  }
                }
              }
              JOINT lMid1
              {
                OFFSET 9.4769 0.8376 0.2947
                CHANNELS 6 Xposition Yposition Zposition Zrotation Xrotation Yrotation
                JOINT lMid2
                {
                  OFFSET 4.772 0 0
                  CHANNELS 6 Xposition Yposition Zposition Zrotation Xrotation Yrotation
                  JOINT lMid3
                  {
                    OFFSET 2.8722 0 0
                    CHANNELS 6 Xposition Yposition Zposition Zrotation Xrotation Yrotation
                    End Site
                    {
                      OFFSET 2.0959 0 0
                    }
                  }
                }
              }
              JOINT lRing1
              {
                OFFSET 8.6586 1.0176 -1.7016
                CHANNELS 6 Xposition Yposition Zposition Zrotation Xrotation Yrotation
                JOINT lRing2
                {
                  OFFSET 4.5461 0 0
                  CHANNELS 6 Xposition Yposition Zposition Zrotation Xrotation Yrotation
                  JOINT lRing3
                  {
                    OFFSET 2.506 0 0
                    CHANNELS 6 Xposition Yposition Zposition Zrotation Xrotation Yrotation
                    End Site
                    {
                      OFFSET 2.2023 0 0
                    }
                  }
                }
              }
              JOINT lPinky1
              {
                OFFSET 7.6901 0.6618 -3.9096
                CHANNELS 6 Xposition Yposition Zposition Zrotation Xrotation Yrotation
                JOINT lPinky2
                {
                  OFFSET 3.2119 0 0
                  CHANNELS 6 Xposition Yposition Zposition Zrotation Xrotation Yrotation
                  JOINT lPinky3
                  {
                    OFFSET 1.924 0 0
                    CHANNELS 6 Xposition Yposition Zposition Zrotation Xrotation Yrotation
                    End Site
                    {
                      OFFSET 1.7829 0 0
                    }
                  }
                }
              }
            }
          }
        }
      }
      JOINT rCollar
      {
        OFFSET -4.0677 26.6109 -1.1234
        CHANNELS 6 Xposition Yposition Zposition Zrotation Xrotation Yrotation
        JOINT rShldr
        {
          OFFSET -14.1772 0 0
          CHANNELS 6 Xposition Yposition Zposition Zrotation Xrotation Yrotation
          JOINT rForeArm
          {
            OFFSET -26.1234 0 0
            CHANNELS 6 Xposition Yposition Zposition Zrotation Xrotation Yrotation
            JOINT rHand
            {
              OFFSET -27.7188 0 0
              CHANNELS 6 Xposition Yposition Zposition Zrotation Xrotation Yrotation
              JOINT rThumb1
              {
                OFFSET -2.2979 -0.4684 1.8313
                CHANNELS 6 Xposition Yposition Zposition Zrotation Xrotation Yrotation
                JOINT rThumb2
                {
                  OFFSET -5.2953 0 0
                  CHANNELS 6 Xposition Yposition Zposition Zrotation Xrotation Yrotation
                  JOINT rThumb3
                  {
                    OFFSET -3.0181 0 0
                    CHANNELS 6 Xposition Yposition Zposition Zrotation Xrotation Yrotation
                    End Site
                    {
                      OFFSET -2.6294 0 0
                    }
                  }
                }
              }
              JOINT rIndex1
              {
                OFFSET -9.3793 0.2991 2.5924
                CHANNELS 6 Xposition Yposition Zposition Zrotation Xrotation Yrotation
                JOINT rIndex2
                {
                  OFFSET -4.3461 0 0
                  CHANNELS 6 Xposition Yposition Zposition Zrotation Xrotation Yrotation
                  JOINT rIndex3
                  {
                    OFFSET -2.1666 0 0
                    CHANNELS 6 Xposition Yposition Zposition Zrotation Xrotation Yrotation
                    End Site
                    {
                      OFFSET -2.2048 0 0
                    }
                  }
                }
              }
              JOINT rMid1
              {
                OFFSET -9.4769 0.8376 0.2947
                CHANNELS 6 Xposition Yposition Zposition Zrotation Xrotation Yrotation
                JOINT rMid2
                {
                  OFFSET -4.772 0 0
                  CHANNELS 6 Xposition Yposition Zposition Zrotation Xrotation Yrotation
                  JOINT rMid3
                  {
                    OFFSET -2.8722 0 0
                    CHANNELS 6 Xposition Yposition Zposition Zrotation Xrotation Yrotation
                    End Site
                    {
                      OFFSET -2.0959 0 0
                    }
                  }
                }
              }
              JOINT rRing1
              {
                OFFSET -8.6586 1.0176 -1.7016
                CHANNELS 6 Xposition Yposition Zposition Zrotation Xrotation Yrotation
                JOINT rRing2
                {
                  OFFSET -4.5461 0 0
                  CHANNELS 6 Xposition Yposition Zposition Zrotation Xrotation Yrotation
                  JOINT rRing3
                  {
                    OFFSET -2.506 0 0
                    CHANNELS 6 Xposition Yposition Zposition Zrotation Xrotation Yrotation
                    End Site
                    {
                      OFFSET -2.2023 0 0
                    }
                  }
                }
              }
              JOINT rPinky1
              {
                OFFSET -7.6901 0.6618 -3.9096
                CHANNELS 6 Xposition Yposition Zposition Zrotation Xrotation Yrotation
                JOINT rPinky2
                {
                  OFFSET -3.2119 0 0
                  CHANNELS 6 Xposition Yposition Zposition Zrotation Xrotation Yrotation
                  JOINT rPinky3
                  {
                    OFFSET -1.924 0 0
                    CHANNELS 6 Xposition Yposition Zposition Zrotation Xrotation Yrotation
                    End Site
                    {
                      OFFSET -1.7829 0 0
                    }
                  }
                }
              }
            }
          }
        }
      }
    }
  }
  JOINT lThigh
  {
    OFFSET 8.7379 -0.0029 0.0005
    CHANNELS 6 Xposition Yposition Zposition Zrotation Xrotation Yrotation
    JOINT lShin
    {
      OFFSET 0 -46.6676 0
      CHANNELS 6 Xposition Yposition Zposition Zrotation Xrotation Yrotation
      JOINT lFoot
      {
        OFFSET 0 -40.1476 0
        CHANNELS 6 Xposition Yposition Zposition Zrotation Xrotation Yrotation
        JOINT lToes
        {
          OFFSET 0 -8.8846 14.2294
          CHANNELS 6 Xposition Yposition Zposition Zrotation Xrotation Yrotation
          End Site
          {
            OFFSET 0 0 6.296
          }
        }
      }
    }
  }
  JOINT rThigh
  {
    OFFSET -8.7379 0.0029 -0.0005
    CHANNELS 6 Xposition Yposition Zposition Zrotation Xrotation Yrotation
    JOINT rShin
    {
      OFFSET 0 -46.6676 0
      CHANNELS 6 Xposition Yposition Zposition Zrotation Xrotation Yrotation
      JOINT rFoot
      {
        OFFSET 0 -40.1476 0
        CHANNELS 6 Xposition Yposition Zposition Zrotation Xrotation Yrotation
        JOINT rToes
        {
          OFFSET 0 -8.8846 14.2294
          CHANNELS 6 Xposition Yposition Zposition Zrotation Xrotation Yrotation
          End Site
          {
            OFFSET 0 0 6.296
          }
        }
      }
    }
  }
}
MOTION
Frames:	4
Frame Time:	0.0333333
3.99556 89.0822 0.228665 -8.93006 -2.61504 -35.9185 -3.55271e-15 7.2397 0 0.833961 3.88228 5.20681 0 16.546 -8.88178e-16 0.14038 9.65737 10.51 2.33147e-15 34.2149 3.55271e-15 1.02798 34.6968 0.25142 4.44089e-16 6.2923 0 3.97113 -31.0429 20.5808 4.0639 26.6115 -1.1234 -1.17332 -2.70525 -4.00002 14.1772 2.84217e-14 3.55271e-15 -59.0786 11.5212 7.05395 26.1234 0 0 -0.421501 0.110214 -29.3042 27.7188 0 -8.88178e-16 10.583 -17.7877 -11.0301 2.2979 -0.4685 1.8313 138.299 53.6243 -159.663 5.2953 1.77636e-15 0 -5.6776 3.04021 0.470788 3.0181 -6.21725e-15 0 22.4438 0.900684 9.58422 9.3793 0.2991 2.5924 -1.24371 -0.200062 -4.98183 4.3461 0 0 -9.95497 0.0971573 2.05965 2.1666 0 -7.10543e-15 -14.7413 -0.374882 2.52165 9.4769 0.8376 0.2947 -1.30911 -4.25764 3.51806 4.772 1.42109e-14 0 -15.6698 -0.463068 4.01886 2.8722 0 7.10543e-15 -15.135 -0.406585 5.2781 8.6586 1.0176 -1.7016 -8.21267 2.26271 12.4688 4.5461 -1.42109e-14 3.55271e-15 -18.3121 -0.400207 2.48201 2.506 -7.10543e-15 3.55271e-15 -15.2715 -0.224013 3.00975 7.6901 0.6618 -3.9096 -15.5541 -10.8853 12.5297 3.2119 -7.10543e-15 7.10543e-15 -16.043 -0.777618 5.51382 1.924 7.10543e-15 0 -28.4674 -2.36518 11.0685 -4.0677 26.6109 -1.1234 8.6903 -1.88199 7.49677 -14.1772 -2.84217e-14 0 58.0814 35.848 -4.48124 -26.1234 7.10543e-15 0 0.607694 0.251026 44.8883 -27.7188 7.10543e-15 0 2.12142 -21.1558 5.51699 -2.2979 -0.4684 1.8313 -44.4836 51.2289 63.1081 -5.2953 0 0 27.0164 0.823706 -10.9051 -3.0181 -7.10543e-15 -3.55271e-15 -11.4216 0.314286 -13.7252 -9.3793 0.2991 2.5924 -8.70765 -1.32762 -1.84072 -4.3461 -7.10543e-15 -7.10543e-15 8.50288 0.159217 -1.57838 -2.1666 7.10543e-15 -7.10543e-15 9.72141 -0.141891 -1.36252 -9.4769 0.8376 0.2947 -5.96558 -4.12432 -2.97944 -4.772 0 0 25.0457 -1.1918 -5.76742 -2.8722 0 0 -1.19809 0.100251 -1.04911 -8.6586 1.0176 -1.7016 -4.13445 2.55318 -2.38389 -4.5461 0 0 24.1783 -0.586767 -2.73861 -2.506 -3.55271e-15 0 11.1342 -0.0793436 -2.0775 -7.6901 0.6618 -3.9096 0.991088 -9.43105 -0.763876 -3.2119 0 7.10543e-15 17.7934 -0.891537 -5.69079 -1.924 -2.66454e-15 0 25.5965 -1.77786 -9.48655 8.7379 -0.0029 0.0005 12.8896 -21.674 15.1255 1.77636e-15 -46.6676 0 11.8428 51.3582 -16.2569 0 -40.1476 0 -3.36522 -22.8008 0.744519 -3.55271e-15 -8.8846 14.2294 0.0001 0 -3.18055e-15 -8.7379 0.0029 -0.0005 -11.4265 5.14995 -22.0444 0 -46.6676 -1.77636e-15 -12.2391 38.6961 -4.13959 -7.10543e-15 -40.1476 -3.55271e-15 14.3065 -7.73781 -17.9266 -7.10543e-15 -8.8846 14.2294 -6.36111e-15 0 -0 
3.93703 88.0499 0.228754 -8.55621 -2.40606 -37.4201 0 7.2397 0 0.848909 4.07087 5.614 1.77636e-15 16.546 -2.22045e-16 -0.0982223 10.028 11.3768 -2.22045e-16 34.2149 0 0.915213 34.5062 0.189809 4.44089e-16 6.2923 0 2.85675 -31.2594 20.2067 4.0639 26.6115 -1.1234 -1.32539 -2.73265 -2.8522 14.1772 0 -1.77636e-15 -59.3094 9.08978 5.91988 26.1234 0 0 -0.443309 0.122871 -30.9817 27.7188 0 -3.55271e-15 11.5402 -16.2814 -11.2532 2.2979 -0.4685 1.8313 138.299 53.6243 -159.663 5.2953 -1.06581e-14 0 -5.7976 3.01551 0.481054 3.0181 -3.55271e-15 0 22.4067 0.856306 9.55579 9.3793 0.2991 2.5924 -2.06844 -0.111546 -5.20958 4.3461 0 0 -9.78607 0.103183 2.02503 2.1666 0 0 -14.6209 -0.36869 2.49795 9.4769 0.8376 0.2947 -1.89498 -4.27836 3.36609 4.772 0 0 -15.654 -0.461951 4.01488 2.8722 0 -7.10543e-15 -15.164 -0.408545 5.28535 8.6586 1.0176 -1.7016 -8.7083 2.2304 12.281 4.5461 0 3.55271e-15 -18.3136 -0.400268 2.4822 2.506 0 0 -15.2687 -0.223917 3.00938 7.6901 0.6618 -3.9096 -15.763 -10.9008 12.4936 3.2119 -1.42109e-14 0 -16.1987 -0.792715 5.56606 1.924 7.10543e-15 0 -28.448 -2.36194 11.0625 -4.0677 26.6109 -1.1234 8.3951 -1.94746 7.04423 -14.1772 2.84217e-14 0 58.3772 31.6647 -6.98675 -26.1234 -7.10543e-15 0 0.626494 0.270348 46.6826 -27.7188 0 0 1.97591 -21.5514 5.51239 -2.2979 -0.4684 1.8313 -44.4836 51.2289 63.1081 -5.2953 0 -3.55271e-15 26.6529 0.975855 -10.9223 -3.0181 -7.10543e-15 2.66454e-15 -11.5809 0.50074 -13.7735 -9.3793 0.2991 2.5924 -7.6075 -1.32887 -1.8879 -4.3461 1.42109e-14 0 9.21091 0.138899 -1.70874 -2.1666 7.10543e-15 -7.10543e-15 9.64813 -0.139642 -1.34941 -9.4769 0.8376 0.2947 -5.79243 -4.12492 -3.06671 -4.772 7.10543e-15 7.10543e-15 24.8636 -1.17347 -5.72801 -2.8722 -1.77636e-15 0 -1.05248 0.10093 -1.08343 -8.6586 1.0176 -1.7016 -3.96015 2.55106 -2.39895 -4.5461 0 0 24.531 -0.603766 -2.77614 -2.506 -1.77636e-15 7.10543e-15 11.2045 -0.0809221 -2.08554 -7.6901 0.6618 -3.9096 2.31809 -9.41483 -1.18492 -3.2119 -3.55271e-15 7.10543e-15 17.7934 -0.89154 -5.69078 -1.924 -2.66454e-15 0 25.5731 -1.77456 -9.47966 8.7379 -0.0029 0.0005 13.8116 -23.4455 16.0134 0 -46.6676 7.10543e-15 12.7635 53.7484 -17.0384 0 -40.1476 0 -3.99814 -23.5238 1.19271 0 -8.8846 14.2294 0.0001 0 3.18055e-15 -8.7379 0.0029 -0.0005 -11.8597 8.16249 -21.4273 0 -46.6676 0 -10.7805 36.5091 -5.12089 0 -40.1476 -8.88178e-16 17.173 -11.143 -12.4924 0 -8.8846 14.2294 -3.18055e-15 8.94531e-16 3.97569e-16 
4.07378 86.9193 0.228843 -7.67043 -1.99996 -39.1328 4.44089e-16 7.2397 0 0.722002 4.3314 5.91407 -1.77636e-15 16.546 3.05311e-16 -0.413448 10.535 11.9603 -3.33067e-16 34.2149 -7.10543e-15 0.757643 34.1636 0.198438 4.44089e-16 6.2923 1.42109e-14 1.80983 -32.2055 20.349 4.0639 26.6115 -1.1234 -1.60454 -2.77648 -2.1431 14.1772 0 0 -59.604 6.18547 4.87067 26.1234 0 7.10543e-15 -0.46173 0.134237 -32.4214 27.7188 -1.42109e-14 -1.77636e-15 12.6225 -15.3838 -11.2994 2.2979 -0.4685 1.8313 138.299 53.6243 -159.663 5.2953 -5.32907e-15 1.42109e-14 -5.08742 3.16136 0.419053 3.0181 4.44089e-15 0 22.6316 1.12605 9.72704 9.3793 0.2991 2.5924 -2.26723 -0.191694 -4.93269 4.3461 1.42109e-14 0 -9.69548 0.106371 2.00645 2.1666 0 -7.10543e-15 -14.9166 -0.384005 2.5561 9.4769 0.8376 0.2947 -1.6383 -4.26691 3.74188 4.772 0 0 -15.5508 -0.454735 3.98903 2.8722 -1.42109e-14 0 -15.1786 -0.409526 5.28896 8.6586 1.0176 -1.7016 -8.40176 2.25045 12.3966 4.5461 1.42109e-14 0 -18.3325 -0.401091 2.48469 2.506 0 -3.55271e-15 -15.2606 -0.223617 3.00829 7.6901 0.6618 -3.9096 -15.6352 -10.8916 12.5444 3.2119 0 0 -16.2725 -0.799923 5.5908 1.924 7.10543e-15 0 -28.4652 -2.36482 11.0678 -4.0677 26.6109 -1.1234 8.05351 -2.00903 6.80436 -14.1772 -2.84217e-14 1.77636e-15 58.3853 27.4018 -7.93296 -26.1234 0 7.10543e-15 0.626913 0.270791 46.7228 -27.7188 7.10543e-15 3.55271e-15 2.74884 -21.1516 5.77612 -2.2979 -0.4684 1.8313 -44.4836 51.2289 63.1081 -5.2953 0 0 26.9975 0.831584 -10.9061 -3.0181 0 3.55271e-15 -11.6688 0.619092 -13.8313 -9.3793 0.2991 2.5924 -5.45001 -1.33932 -2.33249 -4.3461 0 0 9.141 0.140991 -1.69591 -2.1666 0 -7.10543e-15 9.91785 -0.147974 -1.39766 -9.4769 0.8376 0.2947 -5.12881 -4.1284 -3.3566 -4.772 7.10543e-15 7.10543e-15 24.6423 -1.15137 -5.68008 -2.8722 0 0 -0.87005 0.101652 -1.12643 -8.6586 1.0176 -1.7016 -3.17728 2.5408 -2.58309 -4.5461 -7.10543e-15 0 24.6953 -0.611746 -2.79359 -2.506 3.55271e-15 -7.10543e-15 11.233 -0.0815795 -2.08881 -7.6901 0.6618 -3.9096 4.45034 -9.51204 -1.44662 -3.2119 0 0 17.7934 -0.891525 -5.69079 -1.924 -3.55271e-15 0 25.5726 -1.77449 -9.47949 8.7379 -0.0029 0.0005 14.8981 -25.8532 17.3745 0 -46.6676 0 13.5514 55.9866 -17.7138 -3.55271e-15 -40.1476 0 -4.69715 -23.7841 1.53018 0 -8.8846 14.2294 0.0001 9.93923e-17 3.18055e-15 -8.7379 0.0029 -0.0005 -13.0272 7.48612 -21.0212 3.55271e-15 -46.6676 -1.77636e-15 -9.99488 37.8799 -5.37854 0 -40.1476 -3.55271e-15 21.8666 -16.7929 -7.79673 0 -8.8846 14.2294 -0 -1.81391e-15 -0 
4.43391 85.709 0.228932 -6.39542 -1.48875 -40.9267 0 7.2397 -8.88178e-16 0.51778 4.65603 6.05777 6.66134e-16 16.546 0 -0.716527 11.1685 12.1778 4.44089e-16 34.2149 3.55271e-15 0.56342 33.707 0.27083 0 6.2923 0 0.922939 -33.6323 20.934 4.0639 26.6115 -1.1234 -1.92931 -2.82843 -1.65589 14.1772 -5.68434e-14 3.55271e-15 -60.0868 3.34945 3.73537 26.1234 -1.42109e-14 -3.55271e-15 -0.479043 0.14553 -33.7953 27.7188 1.42109e-14 0 13.2219 -14.6199 -10.6995 2.2979 -0.4685 1.8313 138.299 53.6243 -159.663 5.2953 3.55271e-15 0 -4.59466 3.2621 0.374242 3.0181 5.32907e-15 1.42109e-14 23.0655 1.55188 9.94946 9.3793 0.2991 2.5924 -1.96901 -0.31398 -4.55116 4.3461 0 0 -9.59716 0.109796 1.9863 2.1666 0 0 -15.0248 -0.389685 2.57733 9.4769 0.8376 0.2947 -1.12913 -4.2478 3.9924 4.772 0 7.10543e-15 -15.3563 -0.441238 3.94026 2.8722 0 0 -15.1954 -0.410674 5.29316 8.6586 1.0176 -1.7016 -8.09797 2.27002 12.5081 4.5461 -1.42109e-14 0 -18.1984 -0.395277 2.4671 2.506 0 0 -15.2292 -0.222486 3.00411 7.6901 0.6618 -3.9096 -15.2987 -10.8644 12.3566 3.2119 0 0 -16.3476 -0.807301 5.61599 1.924 7.10543e-15 0 -28.4771 -2.36681 11.0715 -4.0677 26.6109 -1.1234 7.62751 -2.072 6.74397 -14.1772 0 0 58.2411 23.3749 -7.76106 -26.1234 0 0 0.614541 0.257928 45.5366 -27.7188 -7.10543e-15 0 3.77405 -20.3727 6.22997 -2.2979 -0.4684 1.8313 -44.4836 51.2289 63.1081 -5.2953 0 2.66454e-15 27.4738 0.634301 -10.8812 -3.0181 0 1.77636e-15 -11.828 0.83117 -13.928 -9.3793 0.2991 2.5924 -4.54681 -1.34755 -2.528 -4.3461 0 0 9.17917 0.139856 -1.70292 -2.1666 7.10543e-15 -7.10543e-15 10.4227 -0.164152 -1.48787 -9.4769 0.8376 0.2947 -5.07468 -4.12575 -3.63595 -4.772 0 -1.42109e-14 24.2621 -1.11385 -5.59753 -2.8722 3.55271e-15 7.10543e-15 -0.623306 0.102404 -1.18457 -8.6586 1.0176 -1.7016 -2.66071 2.53367 -2.85469 -4.5461 0 0 24.6271 -0.608426 -2.78635 -2.506 -1.77636e-15 0 11.3107 -0.083349 -2.0977 -7.6901 0.6618 -3.9096 7.0663 -9.64802 -1.76689 -3.2119 0 7.10543e-15 17.7934 -0.891532 -5.69079 -1.924 3.55271e-15 7.10543e-15 25.6286 -1.78241 -9.49604 8.7379 -0.0029 0.0005 15.9361 -28.7392 18.8324 0 -46.6676 7.10543e-15 14.4918 58.047 -18.5071 3.55271e-15 -40.1476 3.55271e-15 -5.48332 -23.7107 2.05203 0 -8.8846 14.2294 0.0001 -4.96962e-17 3.18055e-15 -8.7379 0.0029 -0.0005 -14.4656 3.91067 -20.8061 -3.55271e-15 -46.6676 0 -9.9211 41.9342 -5.14384 7.10543e-15 -40.1476 -1.77636e-15 25.2166 -22.8289 -4.89006 -7.10543e-15 -8.8846 14.2294 7.95139e-16 2.98177e-16 -3.97569e-16 
